<?xml version="1.0" standalone="no"?>
<!DOCTYPE svg PUBLIC "-//W3C//DTD SVG 20010904//EN"
 "http://www.w3.org/TR/2001/REC-SVG-20010904/DTD/svg10.dtd">
<svg version="1.0" xmlns="http://www.w3.org/2000/svg"
 width="700.000000pt" height="700.000000pt" viewBox="0 0 700.000000 700.000000"
 preserveAspectRatio="xMidYMid meet">
<metadata>
Created by potrace 1.11, written by Peter Selinger 2001-2013
</metadata>
<g transform="translate(0.000000,700.000000) scale(0.100000,-0.100000)"
fill="#000000" stroke="none">
<path d="M5559 6416 c-2 -2 -26 -6 -54 -9 -272 -31 -620 -164 -1038 -398 l-68
-39 -132 40 c-461 138 -912 152 -1377 44 -100 -23 -308 -89 -374 -118 -284
-125 -461 -230 -666 -393 -108 -86 -306 -283 -394 -393 -211 -264 -390 -609
-480 -925 -22 -77 -33 -124 -61 -259 -3 -10 -7 -44 -11 -75 -3 -31 -8 -58 -9
-61 -8 -13 -19 -205 -19 -330 0 -127 9 -278 20 -345 4 -29 19 -113 28 -165 9
-55 48 -200 77 -291 l31 -96 -54 -94 c-77 -133 -188 -363 -244 -504 -52 -132
-118 -353 -128 -427 -4 -26 -11 -69 -15 -95 -16 -84 -6 -298 19 -388 23 -87
74 -192 116 -240 14 -16 36 -41 48 -55 11 -14 41 -41 66 -61 39 -32 69 -49
172 -100 9 -4 42 -15 75 -23 221 -57 498 -27 832 89 557 194 1260 645 1961
1259 63 55 120 105 126 111 6 5 53 48 105 95 196 177 658 647 860 875 24 28
46 52 49 55 11 10 136 157 170 199 19 24 51 62 70 84 19 22 44 52 55 67 11 15
63 83 115 150 l95 122 7 -33 c8 -36 3 -410 -5 -445 -3 -12 -8 -44 -12 -72 -3
-29 -19 -103 -35 -166 -128 -508 -441 -941 -888 -1231 -199 -128 -521 -253
-724 -281 -150 -21 -221 -47 -275 -103 -44 -45 -69 -94 -80 -157 -12 -65 -7
-108 21 -169 30 -64 78 -112 141 -141 75 -35 136 -36 285 -9 14 3 39 7 55 11
119 22 282 70 445 132 96 36 350 161 405 198 17 12 50 34 75 50 197 126 435
339 590 529 94 115 301 432 318 487 2 4 20 45 41 91 52 112 114 283 141 387 7
25 14 52 16 60 2 8 15 68 28 134 36 177 49 307 49 506 0 129 -8 282 -19 332
-2 12 -7 41 -10 63 -16 125 -52 275 -105 439 l-19 60 46 80 c57 101 192 377
229 471 61 154 125 363 139 455 3 19 8 46 10 60 17 88 22 258 11 345 -25 195
-111 350 -255 464 -124 98 -256 141 -456 147 -72 2 -132 3 -135 0z m213 -594
c102 -41 79 -287 -56 -625 -55 -137 -69 -167 -78 -167 -3 0 -24 24 -45 53
-117 160 -316 362 -491 497 -40 30 -72 58 -72 61 0 9 203 93 320 132 99 33
121 39 230 57 57 10 157 6 192 -8z m-2027 -295 c28 -6 82 -16 130 -22 70 -11
227 -54 340 -96 154 -56 286 -124 428 -220 163 -110 315 -249 445 -407 59 -71
169 -235 201 -300 l22 -43 -87 -127 c-167 -243 -463 -626 -609 -786 -5 -6 -39
-45 -75 -86 -36 -41 -72 -81 -80 -90 -8 -9 -58 -63 -111 -121 -209 -226 -534
-543 -779 -759 -47 -41 -87 -77 -90 -80 -3 -3 -34 -30 -70 -60 -36 -30 -67
-57 -70 -60 -4 -4 -307 -243 -365 -288 -87 -66 -155 -115 -274 -197 -165 -113
-131 -113 -306 0 -439 284 -749 717 -874 1221 -16 65 -32 141 -36 167 -4 27
-9 59 -12 70 -9 42 -11 413 -2 477 5 36 11 79 14 95 17 123 78 350 111 414 8
14 14 31 14 37 0 16 123 257 162 319 160 252 407 496 658 651 187 116 429 212
646 258 66 14 91 18 224 36 56 8 408 5 445 -3z m-2303 -3654 c120 -155 353
-382 496 -482 17 -12 32 -26 32 -30 0 -4 -19 -15 -42 -25 -24 -10 -61 -26 -83
-36 -121 -52 -315 -113 -403 -127 -66 -10 -182 -7 -214 6 -105 41 -78 308 67
651 50 120 60 140 66 140 3 0 40 -44 81 -97z"/>
</g>
</svg>
