<?xml version="1.0" standalone="no"?>
<!DOCTYPE svg PUBLIC "-//W3C//DTD SVG 20010904//EN"
 "http://www.w3.org/TR/2001/REC-SVG-20010904/DTD/svg10.dtd">
<svg version="1.0" xmlns="http://www.w3.org/2000/svg"
 width="104.000000pt" height="104.000000pt" viewBox="0 0 104.000000 104.000000"
 preserveAspectRatio="xMidYMid meet">
<metadata>
Created by potrace 1.11, written by Peter Selinger 2001-2013
</metadata>
<g transform="translate(0.000000,104.000000) scale(0.100000,-0.100000)"
fill="#000000" stroke="none">
<path d="M464 899 c-96 -12 -182 -61 -244 -140 -153 -194 -86 -484 137 -586
58 -27 213 -45 213 -26 0 5 10 9 23 8 28 -3 57 12 56 28 0 9 -2 9 -6 0 -2 -7
-9 -13 -14 -13 -6 0 -7 5 -3 12 5 7 3 8 -7 2 -8 -5 -40 -9 -72 -9 -51 -1 -58
1 -54 17 3 10 1 18 -5 18 -5 0 -6 5 -2 11 10 16 11 190 1 196 -4 2 -4 10 0 16
10 17 11 250 1 264 -5 6 -5 14 0 16 4 3 8 39 7 79 l-1 74 36 -1 c19 0 41 4 49
10 11 7 13 7 7 -2 -4 -9 -1 -14 11 -15 33 -2 38 -3 49 -11 7 -4 18 1 25 11 13
16 13 16 -5 2 -18 -14 -19 -13 -13 3 4 12 3 16 -4 11 -6 -4 -15 0 -20 7 -6 10
-9 11 -9 2 0 -7 -5 -13 -11 -13 -5 0 -7 5 -4 10 3 6 3 10 -2 10 -4 1 -26 4
-48 8 -22 4 -63 5 -91 1z m-5 -246 c0 -115 1 -219 0 -233 -4 -143 -3 -198 3
-217 6 -19 4 -21 -18 -17 -85 16 -186 94 -229 179 -37 73 -46 187 -21 261 33
98 125 190 220 220 23 7 42 13 42 13 1 1 2 -92 3 -206z m81 -493 c0 -5 -5 -10
-11 -10 -5 0 -7 5 -4 10 3 6 8 10 11 10 2 0 4 -4 4 -10z"/>
<path d="M675 841 c-6 -11 13 -26 22 -17 4 3 1 6 -6 6 -7 0 -9 5 -6 10 3 6 4
10 1 10 -3 0 -7 -4 -11 -9z"/>
<path d="M669 197 c6 -8 7 -18 3 -22 -4 -5 -1 -5 6 -1 10 6 10 11 1 22 -6 8
-14 14 -16 14 -3 0 0 -6 6 -13z"/>
</g>
</svg>
