<svg xmlns="http://www.w3.org/2000/svg"><symbol id="icon-close"><path d="M.293 18.291a1 1 0 101.414 1.414L10 11.413l8.292 8.292a1 1 0 101.414-1.414l-8.292-8.292 8.292-8.292A1 1 0 1018.291.293L9.999 8.585 1.707.293A1 1 0 10.293 1.707L8.585 10 .293 18.291z"/></symbol><symbol id="icon-down-arrow" viewBox="0 0 386.257 386.257"><path d="M0 96.879l193.129 192.5 193.128-192.5z"/></symbol><symbol id="icon-heart" viewBox="0 0 412.735 412.735"><path d="M295.706 35.522a115.985 115.985 0 00-89.339 41.273 114.413 114.413 0 00-89.339-41.273C52.395 35.522 0 87.917 0 152.55c0 110.76 193.306 218.906 201.143 223.086a9.404 9.404 0 0010.449 0c7.837-4.18 201.143-110.759 201.143-223.086 0-64.633-52.396-117.028-117.029-117.028zm-89.339 319.216C176.065 336.975 20.898 242.412 20.898 152.55c0-53.091 43.039-96.131 96.131-96.131a94.041 94.041 0 0180.457 43.363c3.557 4.905 10.418 5.998 15.323 2.44a10.968 10.968 0 002.44-2.44c29.055-44.435 88.631-56.903 133.066-27.848a96.129 96.129 0 0143.521 80.615c.001 90.907-155.167 184.948-185.469 202.189z"/></symbol><symbol id="icon-planet" viewBox="0 0 512 512"><path d="M44.96 401h422.08a254.077 254.077 0 0017.821-30H27.139a254.077 254.077 0 0017.821 30zM11.109 181c-5.89 19.32-9.482 39.432-10.662 60h511.106c-1.181-20.568-4.772-40.68-10.662-60zm3.287 160h483.207c7.843-22.345 12.563-45.856 13.949-70H.447c1.386 24.144 6.107 47.655 13.949 70zm445.379-240H52.225c-11.903 15.582-21.892 32.344-29.837 50h467.224c-7.945-17.656-17.934-34.418-29.837-50zm-26.834-30C385.081 25.173 322.477 0 256 0S126.919 25.173 79.059 71zM69.173 431a265.23 265.23 0 005.808 6.02C123.333 485.371 187.62 512 256 512s132.667-26.629 181.02-74.98a261.107 261.107 0 005.808-6.02z"/></symbol></svg>