<svg xmlns="http://www.w3.org/2000/svg" xmlns:xlink="http://www.w3.org/1999/xlink"><symbol id="icon-close"><path d="M.293 18.291a1 1 0 101.414 1.414L10 11.413l8.292 8.292a1 1 0 101.414-1.414l-8.292-8.292 8.292-8.292A1 1 0 1018.291.293L9.999 8.585 1.707.293A1 1 0 10.293 1.707L8.585 10 .293 18.291z"/></symbol><symbol id="icon-down-arrow" viewBox="0 0 386.257 386.257"><path d="M0 96.879l193.129 192.5 193.128-192.5z"/></symbol><symbol id="icon-planet" viewBox="0 0 512 512"><path d="M44.96 401h422.08a254.077 254.077 0 0017.821-30H27.139a254.077 254.077 0 0017.821 30zM11.109 181c-5.89 19.32-9.482 39.432-10.662 60h511.106c-1.181-20.568-4.772-40.68-10.662-60zM14.396 341h483.207c7.843-22.345 12.563-45.856 13.949-70H.447c1.386 24.144 6.107 47.655 13.949 70zM459.775 101H52.225c-11.903 15.582-21.892 32.344-29.837 50h467.224c-7.945-17.656-17.934-34.418-29.837-50zM432.941 71C385.081 25.173 322.477 0 256 0S126.919 25.173 79.059 71zM69.173 431a265.23 265.23 0 005.808 6.02C123.333 485.371 187.62 512 256 512s132.667-26.629 181.02-74.98a261.107 261.107 0 005.808-6.02z"/></symbol></svg>