<svg fill="none" viewBox="0 0 512 512" xmlns="http://www.w3.org/2000/svg">
  <g>
    <path d="m44.96 401h422.08c6.641-9.622 12.6-19.637 17.821-30h-457.722c5.221 10.363 11.18 20.378 17.821 30z"/>
    <path d="m11.109 181c-5.89 19.32-9.482 39.432-10.662 60h511.106c-1.181-20.568-4.772-40.68-10.662-60z"/>
    <path d="m14.396 341h483.207c7.843-22.345 12.563-45.856 13.949-70h-511.105c1.386 24.144 6.107 47.655 13.949 70z"/>
    <path d="m459.775 101h-407.55c-11.903 15.582-21.892 32.344-29.837 50h467.224c-7.945-17.656-17.934-34.418-29.837-50z"/>
    <path d="m432.941 71c-47.86-45.827-110.464-71-176.941-71s-129.081 25.173-176.941 71z"/>
    <path d="m69.173 431c1.904 2.029 3.831 4.042 5.808 6.02 48.352 48.351 112.639 74.98 181.019 74.98s132.667-26.629 181.02-74.98c1.977-1.977 3.904-3.99 5.808-6.02z"/>
  </g>
</svg>
